<svg xmlns="http://www.w3.org/2000/svg" viewBox="0 0 200 64" fill="none">
  <style>
    .text { 
      font-family: -apple-system, BlinkMacSystemFont, "Segoe UI", Roboto, Helvetica, Arial, sans-serif, "Apple Color Emoji", "Segoe UI Emoji";
      font-weight: 700;
      font-size: 42px;
      letter-spacing: -0.9px;
      fill: #24292f;
    }
    .rabbit { fill: #c4c4c4; }
    @media (prefers-color-scheme: dark) {
      .text { fill: #f0f6fc; }
    }
  </style>
  <g class="rabbit">
    <rect x="24" y="8" width="1" height="1"/><rect x="25" y="8" width="1" height="1"/><rect x="26" y="8" width="1" height="1"/><rect x="27" y="8" width="1" height="1"/><rect x="28" y="8" width="1" height="1"/><rect x="29" y="8" width="1" height="1"/><rect x="30" y="8" width="1" height="1"/><rect x="31" y="8" width="1" height="1"/><rect x="32" y="8" width="1" height="1"/><rect x="33" y="8" width="1" height="1"/><rect x="34" y="8" width="1" height="1"/><rect x="35" y="8" width="1" height="1"/><rect x="36" y="8" width="1" height="1"/><rect x="37" y="8" width="1" height="1"/><rect x="38" y="8" width="1" height="1"/><rect x="39" y="8" width="1" height="1"/><rect x="24" y="9" width="1" height="1"/><rect x="25" y="9" width="1" height="1"/><rect x="26" y="9" width="1" height="1"/><rect x="27" y="9" width="1" height="1"/><rect x="28" y="9" width="1" height="1"/><rect x="29" y="9" width="1" height="1"/><rect x="30" y="9" width="1" height="1"/><rect x="31" y="9" width="1" height="1"/><rect x="32" y="9" width="1" height="1"/><rect x="33" y="9" width="1" height="1"/><rect x="34" y="9" width="1" height="1"/><rect x="35" y="9" width="1" height="1"/><rect x="36" y="9" width="1" height="1"/><rect x="37" y="9" width="1" height="1"/><rect x="38" y="9" width="1" height="1"/><rect x="39" y="9" width="1" height="1"/><rect x="24" y="10" width="1" height="1"/><rect x="25" y="10" width="1" height="1"/><rect x="26" y="10" width="1" height="1"/><rect x="27" y="10" width="1" height="1"/><rect x="28" y="10" width="1" height="1"/><rect x="29" y="10" width="1" height="1"/><rect x="30" y="10" width="1" height="1"/><rect x="31" y="10" width="1" height="1"/><rect x="32" y="10" width="1" height="1"/><rect x="33" y="10" width="1" height="1"/><rect x="34" y="10" width="1" height="1"/><rect x="35" y="10" width="1" height="1"/><rect x="36" y="10" width="1" height="1"/><rect x="37" y="10" width="1" height="1"/><rect x="38" y="10" width="1" height="1"/><rect x="39" y="10" width="1" height="1"/><rect x="24" y="11" width="1" height="1"/><rect x="25" y="11" width="1" height="1"/><rect x="26" y="11" width="1" height="1"/><rect x="27" y="11" width="1" height="1"/><rect x="28" y="11" width="1" height="1"/><rect x="29" y="11" width="1" height="1"/><rect x="30" y="11" width="1" height="1"/><rect x="31" y="11" width="1" height="1"/><rect x="32" y="11" width="1" height="1"/><rect x="33" y="11" width="1" height="1"/><rect x="34" y="11" width="1" height="1"/><rect x="35" y="11" width="1" height="1"/><rect x="36" y="11" width="1" height="1"/><rect x="37" y="11" width="1" height="1"/><rect x="38" y="11" width="1" height="1"/><rect x="39" y="11" width="1" height="1"/><rect x="20" y="12" width="1" height="1"/><rect x="21" y="12" width="1" height="1"/><rect x="22" y="12" width="1" height="1"/><rect x="23" y="12" width="1" height="1"/><rect x="40" y="12" width="1" height="1"/><rect x="41" y="12" width="1" height="1"/><rect x="42" y="12" width="1" height="1"/><rect x="43" y="12" width="1" height="1"/><rect x="44" y="12" width="1" height="1"/><rect x="45" y="12" width="1" height="1"/><rect x="46" y="12" width="1" height="1"/><rect x="47" y="12" width="1" height="1"/><rect x="48" y="12" width="1" height="1"/><rect x="49" y="12" width="1" height="1"/><rect x="20" y="13" width="1" height="1"/><rect x="21" y="13" width="1" height="1"/><rect x="22" y="13" width="1" height="1"/><rect x="23" y="13" width="1" height="1"/><rect x="40" y="13" width="1" height="1"/><rect x="41" y="13" width="1" height="1"/><rect x="42" y="13" width="1" height="1"/><rect x="43" y="13" width="1" height="1"/><rect x="44" y="13" width="1" height="1"/><rect x="45" y="13" width="1" height="1"/><rect x="46" y="13" width="1" height="1"/><rect x="47" y="13" width="1" height="1"/><rect x="48" y="13" width="1" height="1"/><rect x="49" y="13" width="1" height="1"/><rect x="20" y="14" width="1" height="1"/><rect x="21" y="14" width="1" height="1"/><rect x="22" y="14" width="1" height="1"/><rect x="23" y="14" width="1" height="1"/><rect x="40" y="14" width="1" height="1"/><rect x="41" y="14" width="1" height="1"/><rect x="42" y="14" width="1" height="1"/><rect x="43" y="14" width="1" height="1"/><rect x="44" y="14" width="1" height="1"/><rect x="45" y="14" width="1" height="1"/><rect x="46" y="14" width="1" height="1"/><rect x="47" y="14" width="1" height="1"/><rect x="48" y="14" width="1" height="1"/><rect x="49" y="14" width="1" height="1"/><rect x="20" y="15" width="1" height="1"/><rect x="21" y="15" width="1" height="1"/><rect x="22" y="15" width="1" height="1"/><rect x="23" y="15" width="1" height="1"/><rect x="40" y="15" width="1" height="1"/><rect x="41" y="15" width="1" height="1"/><rect x="42" y="15" width="1" height="1"/><rect x="43" y="15" width="1" height="1"/><rect x="44" y="15" width="1" height="1"/><rect x="45" y="15" width="1" height="1"/><rect x="46" y="15" width="1" height="1"/><rect x="47" y="15" width="1" height="1"/><rect x="48" y="15" width="1" height="1"/><rect x="49" y="15" width="1" height="1"/><rect x="24" y="16" width="1" height="1"/><rect x="25" y="16" width="1" height="1"/><rect x="26" y="16" width="1" height="1"/><rect x="27" y="16" width="1" height="1"/><rect x="28" y="16" width="1" height="1"/><rect x="29" y="16" width="1" height="1"/><rect x="30" y="16" width="1" height="1"/><rect x="31" y="16" width="1" height="1"/><rect x="32" y="16" width="1" height="1"/><rect x="33" y="16" width="1" height="1"/><rect x="34" y="16" width="1" height="1"/><rect x="35" y="16" width="1" height="1"/><rect x="36" y="16" width="1" height="1"/><rect x="37" y="16" width="1" height="1"/><rect x="50" y="16" width="1" height="1"/><rect x="51" y="16" width="1" height="1"/><rect x="52" y="16" width="1" height="1"/><rect x="53" y="16" width="1" height="1"/><rect x="24" y="17" width="1" height="1"/><rect x="25" y="17" width="1" height="1"/><rect x="26" y="17" width="1" height="1"/><rect x="27" y="17" width="1" height="1"/><rect x="28" y="17" width="1" height="1"/><rect x="29" y="17" width="1" height="1"/><rect x="30" y="17" width="1" height="1"/><rect x="31" y="17" width="1" height="1"/><rect x="32" y="17" width="1" height="1"/><rect x="33" y="17" width="1" height="1"/><rect x="34" y="17" width="1" height="1"/><rect x="35" y="17" width="1" height="1"/><rect x="36" y="17" width="1" height="1"/><rect x="37" y="17" width="1" height="1"/><rect x="50" y="17" width="1" height="1"/><rect x="51" y="17" width="1" height="1"/><rect x="52" y="17" width="1" height="1"/><rect x="53" y="17" width="1" height="1"/><rect x="24" y="18" width="1" height="1"/><rect x="25" y="18" width="1" height="1"/><rect x="26" y="18" width="1" height="1"/><rect x="27" y="18" width="1" height="1"/><rect x="28" y="18" width="1" height="1"/><rect x="29" y="18" width="1" height="1"/><rect x="30" y="18" width="1" height="1"/><rect x="31" y="18" width="1" height="1"/><rect x="32" y="18" width="1" height="1"/><rect x="33" y="18" width="1" height="1"/><rect x="34" y="18" width="1" height="1"/><rect x="35" y="18" width="1" height="1"/><rect x="36" y="18" width="1" height="1"/><rect x="37" y="18" width="1" height="1"/><rect x="50" y="18" width="1" height="1"/><rect x="51" y="18" width="1" height="1"/><rect x="52" y="18" width="1" height="1"/><rect x="53" y="18" width="1" height="1"/><rect x="24" y="19" width="1" height="1"/><rect x="25" y="19" width="1" height="1"/><rect x="26" y="19" width="1" height="1"/><rect x="27" y="19" width="1" height="1"/><rect x="28" y="19" width="1" height="1"/><rect x="29" y="19" width="1" height="1"/><rect x="30" y="19" width="1" height="1"/><rect x="31" y="19" width="1" height="1"/><rect x="32" y="19" width="1" height="1"/><rect x="33" y="19" width="1" height="1"/><rect x="34" y="19" width="1" height="1"/><rect x="35" y="19" width="1" height="1"/><rect x="36" y="19" width="1" height="1"/><rect x="37" y="19" width="1" height="1"/><rect x="50" y="19" width="1" height="1"/><rect x="51" y="19" width="1" height="1"/><rect x="52" y="19" width="1" height="1"/><rect x="53" y="19" width="1" height="1"/><rect x="34" y="20" width="1" height="1"/><rect x="35" y="20" width="1" height="1"/><rect x="36" y="20" width="1" height="1"/><rect x="37" y="20" width="1" height="1"/><rect x="44" y="20" width="1" height="1"/><rect x="45" y="20" width="1" height="1"/><rect x="46" y="20" width="1" height="1"/><rect x="47" y="20" width="1" height="1"/><rect x="54" y="20" width="1" height="1"/><rect x="55" y="20" width="1" height="1"/><rect x="56" y="20" width="1" height="1"/><rect x="57" y="20" width="1" height="1"/><rect x="34" y="21" width="1" height="1"/><rect x="35" y="21" width="1" height="1"/><rect x="36" y="21" width="1" height="1"/><rect x="37" y="21" width="1" height="1"/><rect x="44" y="21" width="1" height="1"/><rect x="45" y="21" width="1" height="1"/><rect x="46" y="21" width="1" height="1"/><rect x="47" y="21" width="1" height="1"/><rect x="54" y="21" width="1" height="1"/><rect x="55" y="21" width="1" height="1"/><rect x="56" y="21" width="1" height="1"/><rect x="57" y="21" width="1" height="1"/><rect x="34" y="22" width="1" height="1"/><rect x="35" y="22" width="1" height="1"/><rect x="36" y="22" width="1" height="1"/><rect x="37" y="22" width="1" height="1"/><rect x="44" y="22" width="1" height="1"/><rect x="45" y="22" width="1" height="1"/><rect x="46" y="22" width="1" height="1"/><rect x="47" y="22" width="1" height="1"/><rect x="54" y="22" width="1" height="1"/><rect x="55" y="22" width="1" height="1"/><rect x="56" y="22" width="1" height="1"/><rect x="57" y="22" width="1" height="1"/><rect x="34" y="23" width="1" height="1"/><rect x="35" y="23" width="1" height="1"/><rect x="36" y="23" width="1" height="1"/><rect x="37" y="23" width="1" height="1"/><rect x="44" y="23" width="1" height="1"/><rect x="45" y="23" width="1" height="1"/><rect x="46" y="23" width="1" height="1"/><rect x="47" y="23" width="1" height="1"/><rect x="54" y="23" width="1" height="1"/><rect x="55" y="23" width="1" height="1"/><rect x="56" y="23" width="1" height="1"/><rect x="57" y="23" width="1" height="1"/><rect x="34" y="24" width="1" height="1"/><rect x="35" y="24" width="1" height="1"/><rect x="36" y="24" width="1" height="1"/><rect x="37" y="24" width="1" height="1"/><rect x="54" y="24" width="1" height="1"/><rect x="55" y="24" width="1" height="1"/><rect x="56" y="24" width="1" height="1"/><rect x="57" y="24" width="1" height="1"/><rect x="34" y="25" width="1" height="1"/><rect x="35" y="25" width="1" height="1"/><rect x="36" y="25" width="1" height="1"/><rect x="37" y="25" width="1" height="1"/><rect x="54" y="25" width="1" height="1"/><rect x="55" y="25" width="1" height="1"/><rect x="56" y="25" width="1" height="1"/><rect x="57" y="25" width="1" height="1"/><rect x="34" y="26" width="1" height="1"/><rect x="35" y="26" width="1" height="1"/><rect x="36" y="26" width="1" height="1"/><rect x="37" y="26" width="1" height="1"/><rect x="54" y="26" width="1" height="1"/><rect x="55" y="26" width="1" height="1"/><rect x="56" y="26" width="1" height="1"/><rect x="57" y="26" width="1" height="1"/><rect x="34" y="27" width="1" height="1"/><rect x="35" y="27" width="1" height="1"/><rect x="36" y="27" width="1" height="1"/><rect x="37" y="27" width="1" height="1"/><rect x="54" y="27" width="1" height="1"/><rect x="55" y="27" width="1" height="1"/><rect x="56" y="27" width="1" height="1"/><rect x="57" y="27" width="1" height="1"/><rect x="24" y="28" width="1" height="1"/><rect x="25" y="28" width="1" height="1"/><rect x="26" y="28" width="1" height="1"/><rect x="27" y="28" width="1" height="1"/><rect x="28" y="28" width="1" height="1"/><rect x="29" y="28" width="1" height="1"/><rect x="30" y="28" width="1" height="1"/><rect x="31" y="28" width="1" height="1"/><rect x="32" y="28" width="1" height="1"/><rect x="33" y="28" width="1" height="1"/><rect x="50" y="28" width="1" height="1"/><rect x="51" y="28" width="1" height="1"/><rect x="52" y="28" width="1" height="1"/><rect x="53" y="28" width="1" height="1"/><rect x="24" y="29" width="1" height="1"/><rect x="25" y="29" width="1" height="1"/><rect x="26" y="29" width="1" height="1"/><rect x="27" y="29" width="1" height="1"/><rect x="28" y="29" width="1" height="1"/><rect x="29" y="29" width="1" height="1"/><rect x="30" y="29" width="1" height="1"/><rect x="31" y="29" width="1" height="1"/><rect x="32" y="29" width="1" height="1"/><rect x="33" y="29" width="1" height="1"/><rect x="50" y="29" width="1" height="1"/><rect x="51" y="29" width="1" height="1"/><rect x="52" y="29" width="1" height="1"/><rect x="53" y="29" width="1" height="1"/><rect x="24" y="30" width="1" height="1"/><rect x="25" y="30" width="1" height="1"/><rect x="26" y="30" width="1" height="1"/><rect x="27" y="30" width="1" height="1"/><rect x="28" y="30" width="1" height="1"/><rect x="29" y="30" width="1" height="1"/><rect x="30" y="30" width="1" height="1"/><rect x="31" y="30" width="1" height="1"/><rect x="32" y="30" width="1" height="1"/><rect x="33" y="30" width="1" height="1"/><rect x="50" y="30" width="1" height="1"/><rect x="51" y="30" width="1" height="1"/><rect x="52" y="30" width="1" height="1"/><rect x="53" y="30" width="1" height="1"/><rect x="24" y="31" width="1" height="1"/><rect x="25" y="31" width="1" height="1"/><rect x="26" y="31" width="1" height="1"/><rect x="27" y="31" width="1" height="1"/><rect x="28" y="31" width="1" height="1"/><rect x="29" y="31" width="1" height="1"/><rect x="30" y="31" width="1" height="1"/><rect x="31" y="31" width="1" height="1"/><rect x="32" y="31" width="1" height="1"/><rect x="33" y="31" width="1" height="1"/><rect x="50" y="31" width="1" height="1"/><rect x="51" y="31" width="1" height="1"/><rect x="52" y="31" width="1" height="1"/><rect x="53" y="31" width="1" height="1"/><rect x="16" y="32" width="1" height="1"/><rect x="17" y="32" width="1" height="1"/><rect x="18" y="32" width="1" height="1"/><rect x="19" y="32" width="1" height="1"/><rect x="20" y="32" width="1" height="1"/><rect x="21" y="32" width="1" height="1"/><rect x="22" y="32" width="1" height="1"/><rect x="23" y="32" width="1" height="1"/><rect x="46" y="32" width="1" height="1"/><rect x="47" y="32" width="1" height="1"/><rect x="48" y="32" width="1" height="1"/><rect x="49" y="32" width="1" height="1"/><rect x="16" y="33" width="1" height="1"/><rect x="17" y="33" width="1" height="1"/><rect x="18" y="33" width="1" height="1"/><rect x="19" y="33" width="1" height="1"/><rect x="20" y="33" width="1" height="1"/><rect x="21" y="33" width="1" height="1"/><rect x="22" y="33" width="1" height="1"/><rect x="23" y="33" width="1" height="1"/><rect x="46" y="33" width="1" height="1"/><rect x="47" y="33" width="1" height="1"/><rect x="48" y="33" width="1" height="1"/><rect x="49" y="33" width="1" height="1"/><rect x="16" y="34" width="1" height="1"/><rect x="17" y="34" width="1" height="1"/><rect x="18" y="34" width="1" height="1"/><rect x="19" y="34" width="1" height="1"/><rect x="20" y="34" width="1" height="1"/><rect x="21" y="34" width="1" height="1"/><rect x="22" y="34" width="1" height="1"/><rect x="23" y="34" width="1" height="1"/><rect x="46" y="34" width="1" height="1"/><rect x="47" y="34" width="1" height="1"/><rect x="48" y="34" width="1" height="1"/><rect x="49" y="34" width="1" height="1"/><rect x="16" y="35" width="1" height="1"/><rect x="17" y="35" width="1" height="1"/><rect x="18" y="35" width="1" height="1"/><rect x="19" y="35" width="1" height="1"/><rect x="20" y="35" width="1" height="1"/><rect x="21" y="35" width="1" height="1"/><rect x="22" y="35" width="1" height="1"/><rect x="23" y="35" width="1" height="1"/><rect x="46" y="35" width="1" height="1"/><rect x="47" y="35" width="1" height="1"/><rect x="48" y="35" width="1" height="1"/><rect x="49" y="35" width="1" height="1"/><rect x="12" y="36" width="1" height="1"/><rect x="13" y="36" width="1" height="1"/><rect x="14" y="36" width="1" height="1"/><rect x="15" y="36" width="1" height="1"/><rect x="46" y="36" width="1" height="1"/><rect x="47" y="36" width="1" height="1"/><rect x="48" y="36" width="1" height="1"/><rect x="49" y="36" width="1" height="1"/><rect x="12" y="37" width="1" height="1"/><rect x="13" y="37" width="1" height="1"/><rect x="14" y="37" width="1" height="1"/><rect x="15" y="37" width="1" height="1"/><rect x="46" y="37" width="1" height="1"/><rect x="47" y="37" width="1" height="1"/><rect x="48" y="37" width="1" height="1"/><rect x="49" y="37" width="1" height="1"/><rect x="12" y="38" width="1" height="1"/><rect x="13" y="38" width="1" height="1"/><rect x="14" y="38" width="1" height="1"/><rect x="15" y="38" width="1" height="1"/><rect x="26" y="38" width="1" height="1"/><rect x="27" y="38" width="1" height="1"/><rect x="28" y="38" width="1" height="1"/><rect x="29" y="38" width="1" height="1"/><rect x="46" y="38" width="1" height="1"/><rect x="47" y="38" width="1" height="1"/><rect x="48" y="38" width="1" height="1"/><rect x="49" y="38" width="1" height="1"/><rect x="12" y="39" width="1" height="1"/><rect x="13" y="39" width="1" height="1"/><rect x="14" y="39" width="1" height="1"/><rect x="15" y="39" width="1" height="1"/><rect x="26" y="39" width="1" height="1"/><rect x="27" y="39" width="1" height="1"/><rect x="28" y="39" width="1" height="1"/><rect x="29" y="39" width="1" height="1"/><rect x="46" y="39" width="1" height="1"/><rect x="47" y="39" width="1" height="1"/><rect x="48" y="39" width="1" height="1"/><rect x="49" y="39" width="1" height="1"/><rect x="12" y="40" width="1" height="1"/><rect x="13" y="40" width="1" height="1"/><rect x="14" y="40" width="1" height="1"/><rect x="15" y="40" width="1" height="1"/><rect x="26" y="40" width="1" height="1"/><rect x="27" y="40" width="1" height="1"/><rect x="28" y="40" width="1" height="1"/><rect x="29" y="40" width="1" height="1"/><rect x="46" y="40" width="1" height="1"/><rect x="47" y="40" width="1" height="1"/><rect x="48" y="40" width="1" height="1"/><rect x="49" y="40" width="1" height="1"/><rect x="12" y="41" width="1" height="1"/><rect x="13" y="41" width="1" height="1"/><rect x="14" y="41" width="1" height="1"/><rect x="15" y="41" width="1" height="1"/><rect x="26" y="41" width="1" height="1"/><rect x="27" y="41" width="1" height="1"/><rect x="28" y="41" width="1" height="1"/><rect x="29" y="41" width="1" height="1"/><rect x="46" y="41" width="1" height="1"/><rect x="47" y="41" width="1" height="1"/><rect x="48" y="41" width="1" height="1"/><rect x="49" y="41" width="1" height="1"/><rect x="12" y="42" width="1" height="1"/><rect x="13" y="42" width="1" height="1"/><rect x="14" y="42" width="1" height="1"/><rect x="15" y="42" width="1" height="1"/><rect x="30" y="42" width="1" height="1"/><rect x="31" y="42" width="1" height="1"/><rect x="32" y="42" width="1" height="1"/><rect x="33" y="42" width="1" height="1"/><rect x="34" y="42" width="1" height="1"/><rect x="35" y="42" width="1" height="1"/><rect x="36" y="42" width="1" height="1"/><rect x="37" y="42" width="1" height="1"/><rect x="46" y="42" width="1" height="1"/><rect x="47" y="42" width="1" height="1"/><rect x="48" y="42" width="1" height="1"/><rect x="49" y="42" width="1" height="1"/><rect x="12" y="43" width="1" height="1"/><rect x="13" y="43" width="1" height="1"/><rect x="14" y="43" width="1" height="1"/><rect x="15" y="43" width="1" height="1"/><rect x="30" y="43" width="1" height="1"/><rect x="31" y="43" width="1" height="1"/><rect x="32" y="43" width="1" height="1"/><rect x="33" y="43" width="1" height="1"/><rect x="34" y="43" width="1" height="1"/><rect x="35" y="43" width="1" height="1"/><rect x="36" y="43" width="1" height="1"/><rect x="37" y="43" width="1" height="1"/><rect x="46" y="43" width="1" height="1"/><rect x="47" y="43" width="1" height="1"/><rect x="48" y="43" width="1" height="1"/><rect x="49" y="43" width="1" height="1"/><rect x="12" y="44" width="1" height="1"/><rect x="13" y="44" width="1" height="1"/><rect x="14" y="44" width="1" height="1"/><rect x="15" y="44" width="1" height="1"/><rect x="30" y="44" width="1" height="1"/><rect x="31" y="44" width="1" height="1"/><rect x="32" y="44" width="1" height="1"/><rect x="33" y="44" width="1" height="1"/><rect x="34" y="44" width="1" height="1"/><rect x="35" y="44" width="1" height="1"/><rect x="36" y="44" width="1" height="1"/><rect x="37" y="44" width="1" height="1"/><rect x="46" y="44" width="1" height="1"/><rect x="47" y="44" width="1" height="1"/><rect x="48" y="44" width="1" height="1"/><rect x="49" y="44" width="1" height="1"/><rect x="12" y="45" width="1" height="1"/><rect x="13" y="45" width="1" height="1"/><rect x="14" y="45" width="1" height="1"/><rect x="15" y="45" width="1" height="1"/><rect x="30" y="45" width="1" height="1"/><rect x="31" y="45" width="1" height="1"/><rect x="32" y="45" width="1" height="1"/><rect x="33" y="45" width="1" height="1"/><rect x="34" y="45" width="1" height="1"/><rect x="35" y="45" width="1" height="1"/><rect x="36" y="45" width="1" height="1"/><rect x="37" y="45" width="1" height="1"/><rect x="46" y="45" width="1" height="1"/><rect x="47" y="45" width="1" height="1"/><rect x="48" y="45" width="1" height="1"/><rect x="49" y="45" width="1" height="1"/><rect x="8" y="46" width="1" height="1"/><rect x="9" y="46" width="1" height="1"/><rect x="10" y="46" width="1" height="1"/><rect x="11" y="46" width="1" height="1"/><rect x="38" y="46" width="1" height="1"/><rect x="39" y="46" width="1" height="1"/><rect x="40" y="46" width="1" height="1"/><rect x="41" y="46" width="1" height="1"/><rect x="46" y="46" width="1" height="1"/><rect x="47" y="46" width="1" height="1"/><rect x="48" y="46" width="1" height="1"/><rect x="49" y="46" width="1" height="1"/><rect x="8" y="47" width="1" height="1"/><rect x="9" y="47" width="1" height="1"/><rect x="10" y="47" width="1" height="1"/><rect x="11" y="47" width="1" height="1"/><rect x="38" y="47" width="1" height="1"/><rect x="39" y="47" width="1" height="1"/><rect x="40" y="47" width="1" height="1"/><rect x="41" y="47" width="1" height="1"/><rect x="46" y="47" width="1" height="1"/><rect x="47" y="47" width="1" height="1"/><rect x="48" y="47" width="1" height="1"/><rect x="49" y="47" width="1" height="1"/><rect x="8" y="48" width="1" height="1"/><rect x="9" y="48" width="1" height="1"/><rect x="10" y="48" width="1" height="1"/><rect x="11" y="48" width="1" height="1"/><rect x="38" y="48" width="1" height="1"/><rect x="39" y="48" width="1" height="1"/><rect x="40" y="48" width="1" height="1"/><rect x="41" y="48" width="1" height="1"/><rect x="46" y="48" width="1" height="1"/><rect x="47" y="48" width="1" height="1"/><rect x="48" y="48" width="1" height="1"/><rect x="49" y="48" width="1" height="1"/><rect x="8" y="49" width="1" height="1"/><rect x="9" y="49" width="1" height="1"/><rect x="10" y="49" width="1" height="1"/><rect x="11" y="49" width="1" height="1"/><rect x="38" y="49" width="1" height="1"/><rect x="39" y="49" width="1" height="1"/><rect x="40" y="49" width="1" height="1"/><rect x="41" y="49" width="1" height="1"/><rect x="46" y="49" width="1" height="1"/><rect x="47" y="49" width="1" height="1"/><rect x="48" y="49" width="1" height="1"/><rect x="49" y="49" width="1" height="1"/><rect x="12" y="50" width="1" height="1"/><rect x="13" y="50" width="1" height="1"/><rect x="14" y="50" width="1" height="1"/><rect x="15" y="50" width="1" height="1"/><rect x="16" y="50" width="1" height="1"/><rect x="17" y="50" width="1" height="1"/><rect x="18" y="50" width="1" height="1"/><rect x="19" y="50" width="1" height="1"/><rect x="20" y="50" width="1" height="1"/><rect x="21" y="50" width="1" height="1"/><rect x="22" y="50" width="1" height="1"/><rect x="23" y="50" width="1" height="1"/><rect x="24" y="50" width="1" height="1"/><rect x="25" y="50" width="1" height="1"/><rect x="26" y="50" width="1" height="1"/><rect x="27" y="50" width="1" height="1"/><rect x="28" y="50" width="1" height="1"/><rect x="29" y="50" width="1" height="1"/><rect x="30" y="50" width="1" height="1"/><rect x="31" y="50" width="1" height="1"/><rect x="32" y="50" width="1" height="1"/><rect x="33" y="50" width="1" height="1"/><rect x="34" y="50" width="1" height="1"/><rect x="35" y="50" width="1" height="1"/><rect x="36" y="50" width="1" height="1"/><rect x="37" y="50" width="1" height="1"/><rect x="38" y="50" width="1" height="1"/><rect x="39" y="50" width="1" height="1"/><rect x="40" y="50" width="1" height="1"/><rect x="41" y="50" width="1" height="1"/><rect x="46" y="50" width="1" height="1"/><rect x="47" y="50" width="1" height="1"/><rect x="48" y="50" width="1" height="1"/><rect x="49" y="50" width="1" height="1"/><rect x="50" y="50" width="1" height="1"/><rect x="51" y="50" width="1" height="1"/><rect x="52" y="50" width="1" height="1"/><rect x="53" y="50" width="1" height="1"/><rect x="12" y="51" width="1" height="1"/><rect x="13" y="51" width="1" height="1"/><rect x="14" y="51" width="1" height="1"/><rect x="15" y="51" width="1" height="1"/><rect x="16" y="51" width="1" height="1"/><rect x="17" y="51" width="1" height="1"/><rect x="18" y="51" width="1" height="1"/><rect x="19" y="51" width="1" height="1"/><rect x="20" y="51" width="1" height="1"/><rect x="21" y="51" width="1" height="1"/><rect x="22" y="51" width="1" height="1"/><rect x="23" y="51" width="1" height="1"/><rect x="24" y="51" width="1" height="1"/><rect x="25" y="51" width="1" height="1"/><rect x="26" y="51" width="1" height="1"/><rect x="27" y="51" width="1" height="1"/><rect x="28" y="51" width="1" height="1"/><rect x="29" y="51" width="1" height="1"/><rect x="30" y="51" width="1" height="1"/><rect x="31" y="51" width="1" height="1"/><rect x="32" y="51" width="1" height="1"/><rect x="33" y="51" width="1" height="1"/><rect x="34" y="51" width="1" height="1"/><rect x="35" y="51" width="1" height="1"/><rect x="36" y="51" width="1" height="1"/><rect x="37" y="51" width="1" height="1"/><rect x="38" y="51" width="1" height="1"/><rect x="39" y="51" width="1" height="1"/><rect x="40" y="51" width="1" height="1"/><rect x="41" y="51" width="1" height="1"/><rect x="46" y="51" width="1" height="1"/><rect x="47" y="51" width="1" height="1"/><rect x="48" y="51" width="1" height="1"/><rect x="49" y="51" width="1" height="1"/><rect x="50" y="51" width="1" height="1"/><rect x="51" y="51" width="1" height="1"/><rect x="52" y="51" width="1" height="1"/><rect x="53" y="51" width="1" height="1"/><rect x="12" y="52" width="1" height="1"/><rect x="13" y="52" width="1" height="1"/><rect x="14" y="52" width="1" height="1"/><rect x="15" y="52" width="1" height="1"/><rect x="16" y="52" width="1" height="1"/><rect x="17" y="52" width="1" height="1"/><rect x="18" y="52" width="1" height="1"/><rect x="19" y="52" width="1" height="1"/><rect x="20" y="52" width="1" height="1"/><rect x="21" y="52" width="1" height="1"/><rect x="22" y="52" width="1" height="1"/><rect x="23" y="52" width="1" height="1"/><rect x="24" y="52" width="1" height="1"/><rect x="25" y="52" width="1" height="1"/><rect x="26" y="52" width="1" height="1"/><rect x="27" y="52" width="1" height="1"/><rect x="28" y="52" width="1" height="1"/><rect x="29" y="52" width="1" height="1"/><rect x="30" y="52" width="1" height="1"/><rect x="31" y="52" width="1" height="1"/><rect x="32" y="52" width="1" height="1"/><rect x="33" y="52" width="1" height="1"/><rect x="34" y="52" width="1" height="1"/><rect x="35" y="52" width="1" height="1"/><rect x="36" y="52" width="1" height="1"/><rect x="37" y="52" width="1" height="1"/><rect x="38" y="52" width="1" height="1"/><rect x="39" y="52" width="1" height="1"/><rect x="40" y="52" width="1" height="1"/><rect x="41" y="52" width="1" height="1"/><rect x="46" y="52" width="1" height="1"/><rect x="47" y="52" width="1" height="1"/><rect x="48" y="52" width="1" height="1"/><rect x="49" y="52" width="1" height="1"/><rect x="50" y="52" width="1" height="1"/><rect x="51" y="52" width="1" height="1"/><rect x="52" y="52" width="1" height="1"/><rect x="53" y="52" width="1" height="1"/><rect x="12" y="53" width="1" height="1"/><rect x="13" y="53" width="1" height="1"/><rect x="14" y="53" width="1" height="1"/><rect x="15" y="53" width="1" height="1"/><rect x="16" y="53" width="1" height="1"/><rect x="17" y="53" width="1" height="1"/><rect x="18" y="53" width="1" height="1"/><rect x="19" y="53" width="1" height="1"/><rect x="20" y="53" width="1" height="1"/><rect x="21" y="53" width="1" height="1"/><rect x="22" y="53" width="1" height="1"/><rect x="23" y="53" width="1" height="1"/><rect x="24" y="53" width="1" height="1"/><rect x="25" y="53" width="1" height="1"/><rect x="26" y="53" width="1" height="1"/><rect x="27" y="53" width="1" height="1"/><rect x="28" y="53" width="1" height="1"/><rect x="29" y="53" width="1" height="1"/><rect x="30" y="53" width="1" height="1"/><rect x="31" y="53" width="1" height="1"/><rect x="32" y="53" width="1" height="1"/><rect x="33" y="53" width="1" height="1"/><rect x="34" y="53" width="1" height="1"/><rect x="35" y="53" width="1" height="1"/><rect x="36" y="53" width="1" height="1"/><rect x="37" y="53" width="1" height="1"/><rect x="38" y="53" width="1" height="1"/><rect x="39" y="53" width="1" height="1"/><rect x="40" y="53" width="1" height="1"/><rect x="41" y="53" width="1" height="1"/><rect x="46" y="53" width="1" height="1"/><rect x="47" y="53" width="1" height="1"/><rect x="48" y="53" width="1" height="1"/><rect x="49" y="53" width="1" height="1"/><rect x="50" y="53" width="1" height="1"/><rect x="51" y="53" width="1" height="1"/><rect x="52" y="53" width="1" height="1"/><rect x="53" y="53" width="1" height="1"/>
  </g>
  <text x="72" y="48" class="text">Tabbit</text>
</svg>
